<svg width="930" height="930" viewBox="0 0 930 930" fill="none" xmlns="http://www.w3.org/2000/svg">
  <defs>
    <linearGradient id="bg" x1="0" y1="0" x2="0" y2="930" gradientUnits="userSpaceOnUse">
      <stop stop-color="#F1ECE2"/>
      <stop offset="1" stop-color="#DCCDB8"/>
    </linearGradient>
  </defs>
  <rect width="930" height="930" rx="0" fill="url(#bg)"/>
  <rect x="70" y="60" width="790" height="130" rx="24" fill="#FFFAF4"/>
  <text x="110" y="100" fill="#62584C" font-family="Arial, Helvetica, sans-serif" font-size="26" font-weight="700" letter-spacing="2">ALL ABOUT</text>
  <text x="110" y="157" fill="#202D40" font-family="Arial, Helvetica, sans-serif" font-size="64" font-weight="700">PICKLEBALL</text>

  <rect x="95" y="210" width="740" height="550" rx="28" fill="#4A8A6F"/>
  <rect x="125" y="240" width="680" height="490" rx="20" stroke="#E8F5EC" stroke-width="6"/>
  <line x1="465" y1="240" x2="465" y2="730" stroke="#E8F5EC" stroke-width="6"/>
  <line x1="125" y1="470" x2="805" y2="470" stroke="#E8F5EC" stroke-width="6"/>
  <line x1="125" y1="520" x2="805" y2="520" stroke="#E8F5EC" stroke-width="6"/>

  <ellipse cx="300" cy="225" rx="80" ry="105" fill="#202D40"/>
  <rect x="286" y="300" width="28" height="130" rx="12" fill="#AE7F54"/>

  <ellipse cx="630" cy="675" rx="80" ry="105" fill="#BD664A"/>
  <rect x="616" y="690" width="28" height="130" rx="12" fill="#AE7F54"/>

  <circle cx="465" cy="395" r="36" fill="#F5D053"/>
  <circle cx="450" cy="382" r="4" fill="#4A8A6F"/>
  <circle cx="478" cy="391" r="4" fill="#4A8A6F"/>
  <circle cx="463" cy="410" r="4" fill="#4A8A6F"/>
  <circle cx="441" cy="398" r="4" fill="#4A8A6F"/>

  <text x="110" y="812" fill="#62584C" font-family="Arial, Helvetica, sans-serif" font-size="26" font-weight="500">A practical guide to the sport, its rules, and its rise in popularity</text>
</svg>
